<mxfile host="app.diagrams.net" agent="Mozilla/5.0 (Macintosh; Intel Mac OS X 10_15_7) AppleWebKit/537.36 (KHTML, like Gecko) Chrome/128.0.0.0 Safari/537.36" version="24.7.8">
  <diagram name="Page-1" id="Oi_iAer0bNMHnj7SQQ0_">
    <mxGraphModel dx="1804" dy="489" grid="1" gridSize="10" guides="1" tooltips="1" connect="1" arrows="1" fold="1" page="1" pageScale="1" pageWidth="850" pageHeight="1100" math="0" shadow="0">
      <root>
        <mxCell id="0" />
        <mxCell id="1" parent="0" />
        <mxCell id="0sfCr_yZKVssajlw5qwl-1" value="" style="rounded=0;whiteSpace=wrap;html=1;" vertex="1" parent="1">
          <mxGeometry x="210" y="140" width="470" height="390" as="geometry" />
        </mxCell>
        <mxCell id="0sfCr_yZKVssajlw5qwl-2" value="" style="rounded=0;whiteSpace=wrap;html=1;" vertex="1" parent="1">
          <mxGeometry x="380" y="170" width="130" height="300" as="geometry" />
        </mxCell>
        <mxCell id="0sfCr_yZKVssajlw5qwl-3" value="" style="rounded=0;whiteSpace=wrap;html=1;" vertex="1" parent="1">
          <mxGeometry x="530" y="170" width="130" height="300" as="geometry" />
        </mxCell>
        <mxCell id="0sfCr_yZKVssajlw5qwl-4" value="" style="rounded=0;whiteSpace=wrap;html=1;" vertex="1" parent="1">
          <mxGeometry x="230" y="170" width="130" height="300" as="geometry" />
        </mxCell>
        <mxCell id="0sfCr_yZKVssajlw5qwl-5" value="" style="rounded=0;whiteSpace=wrap;html=1;" vertex="1" parent="1">
          <mxGeometry x="170" y="230" width="40" height="170" as="geometry" />
        </mxCell>
        <mxCell id="0sfCr_yZKVssajlw5qwl-7" value="" style="rounded=0;whiteSpace=wrap;html=1;" vertex="1" parent="1">
          <mxGeometry x="680" y="230" width="40" height="170" as="geometry" />
        </mxCell>
        <mxCell id="0sfCr_yZKVssajlw5qwl-8" value="" style="rounded=1;whiteSpace=wrap;html=1;" vertex="1" parent="1">
          <mxGeometry x="770" y="120" width="190" height="202" as="geometry" />
        </mxCell>
        <mxCell id="0sfCr_yZKVssajlw5qwl-9" value="Consumer 1" style="rounded=0;whiteSpace=wrap;html=1;" vertex="1" parent="1">
          <mxGeometry x="805" y="162" width="120" height="60" as="geometry" />
        </mxCell>
        <mxCell id="0sfCr_yZKVssajlw5qwl-10" value="Consumer 2" style="rounded=0;whiteSpace=wrap;html=1;" vertex="1" parent="1">
          <mxGeometry x="806" y="239" width="120" height="60" as="geometry" />
        </mxCell>
        <mxCell id="0sfCr_yZKVssajlw5qwl-12" value="" style="rounded=1;whiteSpace=wrap;html=1;" vertex="1" parent="1">
          <mxGeometry x="-160" y="230" width="190" height="180" as="geometry" />
        </mxCell>
        <mxCell id="0sfCr_yZKVssajlw5qwl-13" value="Producer 1" style="rounded=0;whiteSpace=wrap;html=1;" vertex="1" parent="1">
          <mxGeometry x="-125" y="250" width="120" height="60" as="geometry" />
        </mxCell>
        <mxCell id="0sfCr_yZKVssajlw5qwl-14" value="Producer 2" style="rounded=0;whiteSpace=wrap;html=1;" vertex="1" parent="1">
          <mxGeometry x="-124" y="327" width="120" height="60" as="geometry" />
        </mxCell>
        <mxCell id="0sfCr_yZKVssajlw5qwl-15" value="Publisher API" style="text;html=1;align=center;verticalAlign=middle;whiteSpace=wrap;rounded=0;rotation=-90;" vertex="1" parent="1">
          <mxGeometry x="150" y="300" width="90" height="30" as="geometry" />
        </mxCell>
        <mxCell id="0sfCr_yZKVssajlw5qwl-16" value="Subscriber API" style="text;html=1;align=center;verticalAlign=middle;whiteSpace=wrap;rounded=0;rotation=-90;" vertex="1" parent="1">
          <mxGeometry x="655" y="297" width="90" height="30" as="geometry" />
        </mxCell>
        <mxCell id="0sfCr_yZKVssajlw5qwl-17" value="" style="rounded=1;whiteSpace=wrap;html=1;" vertex="1" parent="1">
          <mxGeometry x="780" y="340" width="190" height="200" as="geometry" />
        </mxCell>
        <mxCell id="0sfCr_yZKVssajlw5qwl-18" value="Consumer 3" style="rounded=0;whiteSpace=wrap;html=1;" vertex="1" parent="1">
          <mxGeometry x="815" y="380" width="120" height="60" as="geometry" />
        </mxCell>
        <mxCell id="0sfCr_yZKVssajlw5qwl-19" value="Consumer 4" style="rounded=0;whiteSpace=wrap;html=1;" vertex="1" parent="1">
          <mxGeometry x="816" y="457" width="120" height="60" as="geometry" />
        </mxCell>
        <mxCell id="0sfCr_yZKVssajlw5qwl-20" value="Consumer Group 1" style="text;html=1;align=center;verticalAlign=middle;whiteSpace=wrap;rounded=0;" vertex="1" parent="1">
          <mxGeometry x="811" y="120" width="110" height="30" as="geometry" />
        </mxCell>
        <mxCell id="0sfCr_yZKVssajlw5qwl-21" value="Consumer Group 2" style="text;html=1;align=center;verticalAlign=middle;whiteSpace=wrap;rounded=0;" vertex="1" parent="1">
          <mxGeometry x="816" y="340" width="110" height="30" as="geometry" />
        </mxCell>
        <mxCell id="0sfCr_yZKVssajlw5qwl-22" value="Broker 1" style="text;html=1;align=center;verticalAlign=middle;whiteSpace=wrap;rounded=0;" vertex="1" parent="1">
          <mxGeometry x="260" y="170" width="60" height="30" as="geometry" />
        </mxCell>
        <mxCell id="0sfCr_yZKVssajlw5qwl-23" value="Broker 2" style="text;html=1;align=center;verticalAlign=middle;whiteSpace=wrap;rounded=0;" vertex="1" parent="1">
          <mxGeometry x="415" y="170" width="60" height="30" as="geometry" />
        </mxCell>
        <mxCell id="0sfCr_yZKVssajlw5qwl-24" value="Broker 3" style="text;html=1;align=center;verticalAlign=middle;whiteSpace=wrap;rounded=0;" vertex="1" parent="1">
          <mxGeometry x="560" y="170" width="60" height="30" as="geometry" />
        </mxCell>
        <mxCell id="0sfCr_yZKVssajlw5qwl-26" value="Topic A&lt;div&gt;Partition 1&lt;/div&gt;" style="rounded=1;whiteSpace=wrap;html=1;" vertex="1" parent="1">
          <mxGeometry x="242.5" y="220" width="105" height="48" as="geometry" />
        </mxCell>
        <mxCell id="0sfCr_yZKVssajlw5qwl-27" value="Topic A&lt;div&gt;Partition 2&lt;/div&gt;" style="rounded=1;whiteSpace=wrap;html=1;" vertex="1" parent="1">
          <mxGeometry x="242.5" y="282" width="105" height="48" as="geometry" />
        </mxCell>
        <mxCell id="0sfCr_yZKVssajlw5qwl-28" value="Topic B&lt;div&gt;Partition 1&lt;/div&gt;" style="rounded=1;whiteSpace=wrap;html=1;" vertex="1" parent="1">
          <mxGeometry x="240" y="347" width="105" height="48" as="geometry" />
        </mxCell>
        <mxCell id="0sfCr_yZKVssajlw5qwl-29" value="Topic B&lt;div&gt;Partition 2&lt;/div&gt;" style="rounded=1;whiteSpace=wrap;html=1;" vertex="1" parent="1">
          <mxGeometry x="240" y="410" width="105" height="48" as="geometry" />
        </mxCell>
        <mxCell id="0sfCr_yZKVssajlw5qwl-30" value="Zookeeper" style="rounded=0;whiteSpace=wrap;html=1;" vertex="1" parent="1">
          <mxGeometry x="230" y="480" width="430" height="40" as="geometry" />
        </mxCell>
        <mxCell id="0sfCr_yZKVssajlw5qwl-31" value="Kafka Cluster" style="text;html=1;align=center;verticalAlign=middle;whiteSpace=wrap;rounded=0;" vertex="1" parent="1">
          <mxGeometry x="395" y="140" width="95" height="30" as="geometry" />
        </mxCell>
        <mxCell id="0sfCr_yZKVssajlw5qwl-32" value="Topic A&lt;div&gt;Partition 1&lt;/div&gt;" style="rounded=1;whiteSpace=wrap;html=1;" vertex="1" parent="1">
          <mxGeometry x="393.75" y="219" width="105" height="48" as="geometry" />
        </mxCell>
        <mxCell id="0sfCr_yZKVssajlw5qwl-33" value="Topic A&lt;div&gt;Partition 2&lt;/div&gt;" style="rounded=1;whiteSpace=wrap;html=1;" vertex="1" parent="1">
          <mxGeometry x="393.75" y="281" width="105" height="48" as="geometry" />
        </mxCell>
        <mxCell id="0sfCr_yZKVssajlw5qwl-34" value="Topic B&lt;div&gt;Partition 1&lt;/div&gt;" style="rounded=1;whiteSpace=wrap;html=1;" vertex="1" parent="1">
          <mxGeometry x="391.25" y="346" width="105" height="48" as="geometry" />
        </mxCell>
        <mxCell id="0sfCr_yZKVssajlw5qwl-35" value="Topic B&lt;div&gt;Partition 2&lt;/div&gt;" style="rounded=1;whiteSpace=wrap;html=1;" vertex="1" parent="1">
          <mxGeometry x="391.25" y="409" width="105" height="48" as="geometry" />
        </mxCell>
        <mxCell id="0sfCr_yZKVssajlw5qwl-36" value="Topic A&lt;div&gt;Partition 1&lt;/div&gt;" style="rounded=1;whiteSpace=wrap;html=1;" vertex="1" parent="1">
          <mxGeometry x="543.75" y="216" width="105" height="48" as="geometry" />
        </mxCell>
        <mxCell id="0sfCr_yZKVssajlw5qwl-37" value="Topic A&lt;div&gt;Partition 2&lt;/div&gt;" style="rounded=1;whiteSpace=wrap;html=1;" vertex="1" parent="1">
          <mxGeometry x="543.75" y="278" width="105" height="48" as="geometry" />
        </mxCell>
        <mxCell id="0sfCr_yZKVssajlw5qwl-38" value="Topic B&lt;div&gt;Partition 1&lt;/div&gt;" style="rounded=1;whiteSpace=wrap;html=1;" vertex="1" parent="1">
          <mxGeometry x="541.25" y="343" width="105" height="48" as="geometry" />
        </mxCell>
        <mxCell id="0sfCr_yZKVssajlw5qwl-39" value="Topic B&lt;div&gt;Partition 2&lt;/div&gt;" style="rounded=1;whiteSpace=wrap;html=1;" vertex="1" parent="1">
          <mxGeometry x="541.25" y="406" width="105" height="48" as="geometry" />
        </mxCell>
        <mxCell id="0sfCr_yZKVssajlw5qwl-40" value="" style="endArrow=classic;html=1;rounded=0;exitX=1;exitY=0.5;exitDx=0;exitDy=0;entryX=0;entryY=0.25;entryDx=0;entryDy=0;" edge="1" parent="1" source="0sfCr_yZKVssajlw5qwl-13" target="0sfCr_yZKVssajlw5qwl-5">
          <mxGeometry width="50" height="50" relative="1" as="geometry">
            <mxPoint x="80" y="290" as="sourcePoint" />
            <mxPoint x="400" y="380" as="targetPoint" />
          </mxGeometry>
        </mxCell>
        <mxCell id="0sfCr_yZKVssajlw5qwl-42" value="" style="endArrow=classic;html=1;rounded=0;entryX=0;entryY=0.75;entryDx=0;entryDy=0;exitX=1;exitY=0.5;exitDx=0;exitDy=0;" edge="1" parent="1" source="0sfCr_yZKVssajlw5qwl-14" target="0sfCr_yZKVssajlw5qwl-5">
          <mxGeometry width="50" height="50" relative="1" as="geometry">
            <mxPoint x="350" y="430" as="sourcePoint" />
            <mxPoint x="400" y="380" as="targetPoint" />
          </mxGeometry>
        </mxCell>
        <mxCell id="0sfCr_yZKVssajlw5qwl-45" value="" style="endArrow=classic;html=1;rounded=0;exitX=1;exitY=0.5;exitDx=0;exitDy=0;entryX=0;entryY=0.5;entryDx=0;entryDy=0;" edge="1" parent="1" source="0sfCr_yZKVssajlw5qwl-7" target="0sfCr_yZKVssajlw5qwl-8">
          <mxGeometry width="50" height="50" relative="1" as="geometry">
            <mxPoint x="730" y="300" as="sourcePoint" />
            <mxPoint x="780" y="250" as="targetPoint" />
          </mxGeometry>
        </mxCell>
        <mxCell id="0sfCr_yZKVssajlw5qwl-46" value="" style="endArrow=classic;html=1;rounded=0;entryX=0;entryY=0.25;entryDx=0;entryDy=0;" edge="1" parent="1" target="0sfCr_yZKVssajlw5qwl-17">
          <mxGeometry width="50" height="50" relative="1" as="geometry">
            <mxPoint x="720" y="320" as="sourcePoint" />
            <mxPoint x="780" y="370" as="targetPoint" />
          </mxGeometry>
        </mxCell>
        <mxCell id="0sfCr_yZKVssajlw5qwl-48" value="" style="endArrow=classic;html=1;rounded=0;exitX=0.942;exitY=0.978;exitDx=0;exitDy=0;exitPerimeter=0;entryX=0;entryY=0.5;entryDx=0;entryDy=0;dashed=1;" edge="1" parent="1" source="0sfCr_yZKVssajlw5qwl-12" target="0sfCr_yZKVssajlw5qwl-30">
          <mxGeometry width="50" height="50" relative="1" as="geometry">
            <mxPoint x="350" y="390" as="sourcePoint" />
            <mxPoint x="400" y="340" as="targetPoint" />
          </mxGeometry>
        </mxCell>
        <mxCell id="0sfCr_yZKVssajlw5qwl-49" value="Get Broker Id" style="text;html=1;align=center;verticalAlign=middle;whiteSpace=wrap;rounded=0;" vertex="1" parent="1">
          <mxGeometry x="50" y="450" width="80" height="30" as="geometry" />
        </mxCell>
        <mxCell id="0sfCr_yZKVssajlw5qwl-50" value="" style="endArrow=classic;html=1;rounded=0;exitX=1;exitY=0.5;exitDx=0;exitDy=0;entryX=-0.021;entryY=0.7;entryDx=0;entryDy=0;dashed=1;entryPerimeter=0;" edge="1" parent="1" source="0sfCr_yZKVssajlw5qwl-30" target="0sfCr_yZKVssajlw5qwl-17">
          <mxGeometry width="50" height="50" relative="1" as="geometry">
            <mxPoint x="530" y="390" as="sourcePoint" />
            <mxPoint x="580" y="340" as="targetPoint" />
          </mxGeometry>
        </mxCell>
        <mxCell id="0sfCr_yZKVssajlw5qwl-51" value="" style="endArrow=classic;html=1;rounded=0;exitX=1;exitY=0.5;exitDx=0;exitDy=0;entryX=0.037;entryY=0.97;entryDx=0;entryDy=0;entryPerimeter=0;dashed=1;" edge="1" parent="1" source="0sfCr_yZKVssajlw5qwl-30" target="0sfCr_yZKVssajlw5qwl-8">
          <mxGeometry width="50" height="50" relative="1" as="geometry">
            <mxPoint x="530" y="390" as="sourcePoint" />
            <mxPoint x="580" y="340" as="targetPoint" />
          </mxGeometry>
        </mxCell>
        <mxCell id="0sfCr_yZKVssajlw5qwl-52" value="Update Offset" style="text;html=1;align=center;verticalAlign=middle;whiteSpace=wrap;rounded=0;" vertex="1" parent="1">
          <mxGeometry x="690" y="440" width="80" height="30" as="geometry" />
        </mxCell>
      </root>
    </mxGraphModel>
  </diagram>
</mxfile>
